<mxfile host="app.diagrams.net" modified="2023-05-27T17:16:27.142Z" agent="Mozilla/5.0 (Windows NT 10.0; Win64; x64) AppleWebKit/537.36 (KHTML, like Gecko) Chrome/113.0.0.0 Safari/537.36 Edg/113.0.1774.57" etag="pqJ-zbazu1CK--2yRBAW" version="21.3.4" type="github">
  <diagram name="Trang-1" id="sr2zoFolmj5D6Wy5-SP7">
    <mxGraphModel dx="1437" dy="4088" grid="1" gridSize="10" guides="1" tooltips="1" connect="1" arrows="1" fold="1" page="1" pageScale="1" pageWidth="2339" pageHeight="3300" math="0" shadow="0">
      <root>
        <mxCell id="0" />
        <mxCell id="1" parent="0" />
        <mxCell id="4pOcg5WGqPger-8Qo3MJ-1" value="" style="rounded=0;whiteSpace=wrap;html=1;" vertex="1" parent="1">
          <mxGeometry x="120" y="-810" width="1200" height="590" as="geometry" />
        </mxCell>
        <mxCell id="4pOcg5WGqPger-8Qo3MJ-2" value="" style="rounded=0;whiteSpace=wrap;html=1;" vertex="1" parent="1">
          <mxGeometry x="440" y="-780" width="560" height="40" as="geometry" />
        </mxCell>
        <mxCell id="4pOcg5WGqPger-8Qo3MJ-3" value="&lt;b&gt;Mã hóa chuỗi&lt;/b&gt;" style="rounded=0;whiteSpace=wrap;html=1;fontColor=#000000;labelBackgroundColor=#88FF00;" vertex="1" parent="1">
          <mxGeometry x="510" y="-772.5" width="100" height="25" as="geometry" />
        </mxCell>
        <mxCell id="4pOcg5WGqPger-8Qo3MJ-4" value="&lt;b&gt;Chữ ký số&lt;/b&gt;" style="rounded=0;whiteSpace=wrap;html=1;" vertex="1" parent="1">
          <mxGeometry x="670" y="-772.5" width="100" height="25" as="geometry" />
        </mxCell>
        <mxCell id="4pOcg5WGqPger-8Qo3MJ-5" value="&lt;b&gt;Tác giải&lt;/b&gt;" style="rounded=0;whiteSpace=wrap;html=1;" vertex="1" parent="1">
          <mxGeometry x="830" y="-772.5" width="100" height="25" as="geometry" />
        </mxCell>
        <mxCell id="4pOcg5WGqPger-8Qo3MJ-7" value="" style="rounded=0;whiteSpace=wrap;html=1;" vertex="1" parent="1">
          <mxGeometry x="535" y="-710" width="370" height="460" as="geometry" />
        </mxCell>
        <mxCell id="4pOcg5WGqPger-8Qo3MJ-8" value="" style="rounded=0;whiteSpace=wrap;html=1;" vertex="1" parent="1">
          <mxGeometry x="140" y="-710" width="370" height="460" as="geometry" />
        </mxCell>
        <mxCell id="4pOcg5WGqPger-8Qo3MJ-9" value="" style="rounded=0;whiteSpace=wrap;html=1;" vertex="1" parent="1">
          <mxGeometry x="930" y="-710" width="370" height="460" as="geometry" />
        </mxCell>
        <mxCell id="4pOcg5WGqPger-8Qo3MJ-10" value="&lt;b&gt;TẠO KHÓA&lt;/b&gt;" style="rounded=0;whiteSpace=wrap;html=1;" vertex="1" parent="1">
          <mxGeometry x="155" y="-690" width="110" height="20" as="geometry" />
        </mxCell>
        <mxCell id="4pOcg5WGqPger-8Qo3MJ-11" value="&lt;b&gt;MÃ HÓA CHUỖI&lt;/b&gt;" style="rounded=0;whiteSpace=wrap;html=1;" vertex="1" parent="1">
          <mxGeometry x="553" y="-690" width="120" height="20" as="geometry" />
        </mxCell>
        <mxCell id="4pOcg5WGqPger-8Qo3MJ-12" value="&lt;b&gt;GIẢI MÃ CHUỖI&lt;/b&gt;" style="rounded=0;whiteSpace=wrap;html=1;" vertex="1" parent="1">
          <mxGeometry x="950" y="-690" width="120" height="20" as="geometry" />
        </mxCell>
        <mxCell id="4pOcg5WGqPger-8Qo3MJ-13" value="&lt;b style=&quot;border-color: var(--border-color);&quot;&gt;Khóa công khai (p, alpha):&lt;/b&gt;" style="rounded=0;whiteSpace=wrap;html=1;" vertex="1" parent="1">
          <mxGeometry x="160" y="-660" width="170" height="20" as="geometry" />
        </mxCell>
        <mxCell id="4pOcg5WGqPger-8Qo3MJ-14" value="&lt;b&gt;Nội dung bản rõ:&lt;/b&gt;" style="rounded=0;whiteSpace=wrap;html=1;" vertex="1" parent="1">
          <mxGeometry x="570" y="-595" width="120" height="25" as="geometry" />
        </mxCell>
        <mxCell id="4pOcg5WGqPger-8Qo3MJ-15" value="&lt;b&gt;Nội dung bản mã:&lt;/b&gt;" style="rounded=0;whiteSpace=wrap;html=1;" vertex="1" parent="1">
          <mxGeometry x="970" y="-660" width="160" height="20" as="geometry" />
        </mxCell>
        <mxCell id="4pOcg5WGqPger-8Qo3MJ-16" value="&lt;b&gt;Số p =&amp;nbsp;&lt;/b&gt;" style="rounded=0;whiteSpace=wrap;html=1;" vertex="1" parent="1">
          <mxGeometry x="160" y="-626" width="100" height="20" as="geometry" />
        </mxCell>
        <mxCell id="4pOcg5WGqPger-8Qo3MJ-17" value="&lt;b&gt;Số Alpha =&amp;nbsp;&lt;/b&gt;" style="rounded=0;whiteSpace=wrap;html=1;" vertex="1" parent="1">
          <mxGeometry x="160" y="-575" width="100" height="20" as="geometry" />
        </mxCell>
        <mxCell id="4pOcg5WGqPger-8Qo3MJ-18" value="" style="rounded=0;whiteSpace=wrap;html=1;" vertex="1" parent="1">
          <mxGeometry x="280" y="-626" width="200" height="20" as="geometry" />
        </mxCell>
        <mxCell id="4pOcg5WGqPger-8Qo3MJ-19" value="" style="rounded=0;whiteSpace=wrap;html=1;" vertex="1" parent="1">
          <mxGeometry x="280" y="-575" width="200" height="20" as="geometry" />
        </mxCell>
        <mxCell id="4pOcg5WGqPger-8Qo3MJ-20" value="&lt;b&gt;Nội dung bản mã:&lt;/b&gt;" style="rounded=0;whiteSpace=wrap;html=1;" vertex="1" parent="1">
          <mxGeometry x="570" y="-470" width="120" height="20" as="geometry" />
        </mxCell>
        <mxCell id="4pOcg5WGqPger-8Qo3MJ-21" value="" style="rounded=0;whiteSpace=wrap;html=1;" vertex="1" parent="1">
          <mxGeometry x="570" y="-560" width="300" height="80" as="geometry" />
        </mxCell>
        <mxCell id="4pOcg5WGqPger-8Qo3MJ-22" value="" style="rounded=0;whiteSpace=wrap;html=1;" vertex="1" parent="1">
          <mxGeometry x="570" y="-440" width="300" height="80" as="geometry" />
        </mxCell>
        <mxCell id="4pOcg5WGqPger-8Qo3MJ-23" value="&lt;b&gt;Tiến hành mã hóa&lt;/b&gt;" style="rounded=0;whiteSpace=wrap;html=1;" vertex="1" parent="1">
          <mxGeometry x="570" y="-335" width="300" height="30" as="geometry" />
        </mxCell>
        <mxCell id="4pOcg5WGqPger-8Qo3MJ-25" value="" style="rounded=0;whiteSpace=wrap;html=1;" vertex="1" parent="1">
          <mxGeometry x="570" y="-626" width="240" height="20" as="geometry" />
        </mxCell>
        <mxCell id="4pOcg5WGqPger-8Qo3MJ-26" value="&lt;b&gt;Mở file&lt;/b&gt;" style="rounded=0;whiteSpace=wrap;html=1;" vertex="1" parent="1">
          <mxGeometry x="820" y="-626" width="50" height="20" as="geometry" />
        </mxCell>
        <mxCell id="4pOcg5WGqPger-8Qo3MJ-27" value="&lt;b&gt;Chọn file bản rõ:&lt;/b&gt;" style="rounded=0;whiteSpace=wrap;html=1;" vertex="1" parent="1">
          <mxGeometry x="570" y="-660" width="110" height="20" as="geometry" />
        </mxCell>
        <mxCell id="4pOcg5WGqPger-8Qo3MJ-29" value="" style="rounded=0;whiteSpace=wrap;html=1;" vertex="1" parent="1">
          <mxGeometry x="970" y="-626" width="240" height="20" as="geometry" />
        </mxCell>
        <mxCell id="4pOcg5WGqPger-8Qo3MJ-30" value="&lt;b style=&quot;border-color: var(--border-color);&quot;&gt;Mở file&lt;/b&gt;" style="rounded=0;whiteSpace=wrap;html=1;" vertex="1" parent="1">
          <mxGeometry x="1220" y="-626" width="50" height="20" as="geometry" />
        </mxCell>
        <mxCell id="4pOcg5WGqPger-8Qo3MJ-31" value="&lt;b&gt;Nội dung bản mã:&lt;/b&gt;" style="rounded=0;whiteSpace=wrap;html=1;" vertex="1" parent="1">
          <mxGeometry x="970" y="-595" width="120" height="25" as="geometry" />
        </mxCell>
        <mxCell id="4pOcg5WGqPger-8Qo3MJ-32" value="" style="rounded=0;whiteSpace=wrap;html=1;" vertex="1" parent="1">
          <mxGeometry x="970" y="-560" width="300" height="100" as="geometry" />
        </mxCell>
        <mxCell id="4pOcg5WGqPger-8Qo3MJ-33" value="&lt;b&gt;Tiến hành giải mã&lt;/b&gt;" style="rounded=0;whiteSpace=wrap;html=1;" vertex="1" parent="1">
          <mxGeometry x="970" y="-293" width="300" height="30" as="geometry" />
        </mxCell>
        <mxCell id="4pOcg5WGqPger-8Qo3MJ-34" value="&lt;b&gt;Nội dung bản rõ:&lt;/b&gt;" style="rounded=0;whiteSpace=wrap;html=1;" vertex="1" parent="1">
          <mxGeometry x="970" y="-443" width="120" height="23" as="geometry" />
        </mxCell>
        <mxCell id="4pOcg5WGqPger-8Qo3MJ-35" value="" style="rounded=0;whiteSpace=wrap;html=1;" vertex="1" parent="1">
          <mxGeometry x="970" y="-410" width="300" height="100" as="geometry" />
        </mxCell>
        <mxCell id="4pOcg5WGqPger-8Qo3MJ-36" value="&lt;b&gt;Chuyển tiếp dữ liệu&lt;/b&gt;" style="rounded=0;whiteSpace=wrap;html=1;" vertex="1" parent="1">
          <mxGeometry x="570" y="-293" width="140" height="30" as="geometry" />
        </mxCell>
        <mxCell id="4pOcg5WGqPger-8Qo3MJ-37" value="&lt;b&gt;Lưu file bản mã&lt;/b&gt;" style="rounded=0;whiteSpace=wrap;html=1;" vertex="1" parent="1">
          <mxGeometry x="730" y="-293" width="140" height="30" as="geometry" />
        </mxCell>
        <mxCell id="4pOcg5WGqPger-8Qo3MJ-39" value="&lt;b&gt;Dark/Light&lt;/b&gt;" style="rounded=0;whiteSpace=wrap;html=1;" vertex="1" parent="1">
          <mxGeometry x="1180" y="-770" width="120" height="30" as="geometry" />
        </mxCell>
        <mxCell id="4pOcg5WGqPger-8Qo3MJ-40" value="&lt;b&gt;Khóa bị mật&lt;/b&gt;" style="rounded=0;whiteSpace=wrap;html=1;align=center;" vertex="1" parent="1">
          <mxGeometry x="160" y="-530" width="110" height="20" as="geometry" />
        </mxCell>
        <mxCell id="4pOcg5WGqPger-8Qo3MJ-41" value="&lt;b&gt;Số a =&amp;nbsp;&lt;/b&gt;" style="rounded=0;whiteSpace=wrap;html=1;" vertex="1" parent="1">
          <mxGeometry x="160" y="-490" width="100" height="20" as="geometry" />
        </mxCell>
        <mxCell id="4pOcg5WGqPger-8Qo3MJ-42" value="" style="rounded=0;whiteSpace=wrap;html=1;" vertex="1" parent="1">
          <mxGeometry x="280" y="-490" width="200" height="20" as="geometry" />
        </mxCell>
        <mxCell id="4pOcg5WGqPger-8Qo3MJ-43" value="&lt;b&gt;Số Beta =&amp;nbsp;&lt;/b&gt;" style="rounded=0;whiteSpace=wrap;html=1;" vertex="1" parent="1">
          <mxGeometry x="160" y="-448" width="100" height="20" as="geometry" />
        </mxCell>
        <mxCell id="4pOcg5WGqPger-8Qo3MJ-44" value="" style="rounded=0;whiteSpace=wrap;html=1;" vertex="1" parent="1">
          <mxGeometry x="280" y="-448" width="200" height="20" as="geometry" />
        </mxCell>
        <mxCell id="4pOcg5WGqPger-8Qo3MJ-45" value="&lt;b&gt;Số k =&amp;nbsp;&lt;/b&gt;" style="rounded=0;whiteSpace=wrap;html=1;" vertex="1" parent="1">
          <mxGeometry x="160" y="-400" width="100" height="20" as="geometry" />
        </mxCell>
        <mxCell id="4pOcg5WGqPger-8Qo3MJ-46" value="" style="rounded=0;whiteSpace=wrap;html=1;" vertex="1" parent="1">
          <mxGeometry x="280" y="-400" width="200" height="20" as="geometry" />
        </mxCell>
        <mxCell id="4pOcg5WGqPger-8Qo3MJ-47" value="&lt;b&gt;Thoát&lt;/b&gt;" style="rounded=0;whiteSpace=wrap;html=1;" vertex="1" parent="1">
          <mxGeometry x="340" y="-293" width="140" height="30" as="geometry" />
        </mxCell>
        <mxCell id="4pOcg5WGqPger-8Qo3MJ-48" value="&lt;b&gt;Xóa dữ liệu&lt;/b&gt;" style="rounded=0;whiteSpace=wrap;html=1;" vertex="1" parent="1">
          <mxGeometry x="160" y="-293" width="140" height="30" as="geometry" />
        </mxCell>
        <mxCell id="4pOcg5WGqPger-8Qo3MJ-49" value="&lt;b&gt;Tạo khóa ngẫu nhiên&lt;/b&gt;" style="rounded=0;whiteSpace=wrap;html=1;" vertex="1" parent="1">
          <mxGeometry x="160" y="-335" width="320" height="30" as="geometry" />
        </mxCell>
        <mxCell id="4pOcg5WGqPger-8Qo3MJ-54" value="" style="rounded=0;whiteSpace=wrap;html=1;" vertex="1" parent="1">
          <mxGeometry x="120" y="-15" width="1200" height="590" as="geometry" />
        </mxCell>
        <mxCell id="4pOcg5WGqPger-8Qo3MJ-55" value="" style="rounded=0;whiteSpace=wrap;html=1;" vertex="1" parent="1">
          <mxGeometry x="440" y="20" width="560" height="40" as="geometry" />
        </mxCell>
        <mxCell id="4pOcg5WGqPger-8Qo3MJ-56" value="&lt;b style=&quot;border-color: var(--border-color);&quot;&gt;Mã hóa chuỗi&lt;/b&gt;" style="rounded=0;whiteSpace=wrap;html=1;" vertex="1" parent="1">
          <mxGeometry x="510" y="27.5" width="100" height="25" as="geometry" />
        </mxCell>
        <mxCell id="4pOcg5WGqPger-8Qo3MJ-57" value="&lt;b style=&quot;border-color: var(--border-color);&quot;&gt;Chữ ký số&lt;/b&gt;" style="rounded=0;whiteSpace=wrap;html=1;labelBackgroundColor=#88FF00;" vertex="1" parent="1">
          <mxGeometry x="670" y="27.5" width="100" height="25" as="geometry" />
        </mxCell>
        <mxCell id="4pOcg5WGqPger-8Qo3MJ-58" value="&lt;b style=&quot;border-color: var(--border-color);&quot;&gt;Tác giải&lt;/b&gt;" style="rounded=0;whiteSpace=wrap;html=1;" vertex="1" parent="1">
          <mxGeometry x="830" y="27.5" width="100" height="25" as="geometry" />
        </mxCell>
        <mxCell id="4pOcg5WGqPger-8Qo3MJ-59" value="" style="rounded=0;whiteSpace=wrap;html=1;" vertex="1" parent="1">
          <mxGeometry x="535" y="90" width="370" height="460" as="geometry" />
        </mxCell>
        <mxCell id="4pOcg5WGqPger-8Qo3MJ-60" value="" style="rounded=0;whiteSpace=wrap;html=1;" vertex="1" parent="1">
          <mxGeometry x="140" y="90" width="370" height="460" as="geometry" />
        </mxCell>
        <mxCell id="4pOcg5WGqPger-8Qo3MJ-61" value="" style="rounded=0;whiteSpace=wrap;html=1;" vertex="1" parent="1">
          <mxGeometry x="930" y="90" width="370" height="460" as="geometry" />
        </mxCell>
        <mxCell id="4pOcg5WGqPger-8Qo3MJ-62" value="&lt;b style=&quot;border-color: var(--border-color);&quot;&gt;TẠO KHÓA&lt;/b&gt;" style="rounded=0;whiteSpace=wrap;html=1;" vertex="1" parent="1">
          <mxGeometry x="160" y="110" width="120" height="20" as="geometry" />
        </mxCell>
        <mxCell id="4pOcg5WGqPger-8Qo3MJ-63" value="&lt;b&gt;PHÁT SINH CHỮ KÝ&lt;/b&gt;" style="rounded=0;whiteSpace=wrap;html=1;" vertex="1" parent="1">
          <mxGeometry x="553" y="110" width="137" height="20" as="geometry" />
        </mxCell>
        <mxCell id="4pOcg5WGqPger-8Qo3MJ-64" value="&lt;b&gt;KIỂM TRA CHỮ KÝ&lt;/b&gt;" style="rounded=0;whiteSpace=wrap;html=1;" vertex="1" parent="1">
          <mxGeometry x="950" y="110" width="140" height="20" as="geometry" />
        </mxCell>
        <mxCell id="4pOcg5WGqPger-8Qo3MJ-65" value="&lt;b&gt;Tạo khóa công khai (p, a, d):&lt;/b&gt;" style="rounded=0;whiteSpace=wrap;html=1;" vertex="1" parent="1">
          <mxGeometry x="160" y="150" width="170" height="20" as="geometry" />
        </mxCell>
        <mxCell id="4pOcg5WGqPger-8Qo3MJ-66" value="&lt;b&gt;Nội dung văn bản:&lt;/b&gt;" style="rounded=0;whiteSpace=wrap;html=1;" vertex="1" parent="1">
          <mxGeometry x="570" y="210" width="120" height="15" as="geometry" />
        </mxCell>
        <mxCell id="4pOcg5WGqPger-8Qo3MJ-67" value="&lt;b&gt;Chọn file thực hiện kiểm tra chữ ký:&lt;/b&gt;" style="rounded=0;whiteSpace=wrap;html=1;" vertex="1" parent="1">
          <mxGeometry x="970" y="140" width="220" height="20" as="geometry" />
        </mxCell>
        <mxCell id="4pOcg5WGqPger-8Qo3MJ-68" value="&lt;b&gt;Số nguyên tố p =&lt;/b&gt;" style="rounded=0;whiteSpace=wrap;html=1;" vertex="1" parent="1">
          <mxGeometry x="160" y="190" width="120" height="20" as="geometry" />
        </mxCell>
        <mxCell id="4pOcg5WGqPger-8Qo3MJ-69" value="&lt;b&gt;Số (alpha) a =&amp;nbsp;&lt;/b&gt;" style="rounded=0;whiteSpace=wrap;html=1;" vertex="1" parent="1">
          <mxGeometry x="160" y="230" width="120" height="20" as="geometry" />
        </mxCell>
        <mxCell id="4pOcg5WGqPger-8Qo3MJ-70" value="" style="rounded=0;whiteSpace=wrap;html=1;" vertex="1" parent="1">
          <mxGeometry x="300" y="190" width="180" height="20" as="geometry" />
        </mxCell>
        <mxCell id="4pOcg5WGqPger-8Qo3MJ-71" value="" style="rounded=0;whiteSpace=wrap;html=1;" vertex="1" parent="1">
          <mxGeometry x="300" y="230" width="180" height="20" as="geometry" />
        </mxCell>
        <mxCell id="4pOcg5WGqPger-8Qo3MJ-72" value="&lt;b&gt;Nội dung chữ ký:&lt;/b&gt;" style="rounded=0;whiteSpace=wrap;html=1;" vertex="1" parent="1">
          <mxGeometry x="570" y="330" width="120" height="20" as="geometry" />
        </mxCell>
        <mxCell id="4pOcg5WGqPger-8Qo3MJ-73" value="" style="rounded=0;whiteSpace=wrap;html=1;" vertex="1" parent="1">
          <mxGeometry x="570" y="240" width="300" height="80" as="geometry" />
        </mxCell>
        <mxCell id="4pOcg5WGqPger-8Qo3MJ-74" value="" style="rounded=0;whiteSpace=wrap;html=1;" vertex="1" parent="1">
          <mxGeometry x="570" y="360" width="300" height="80" as="geometry" />
        </mxCell>
        <mxCell id="4pOcg5WGqPger-8Qo3MJ-75" value="&lt;b style=&quot;border-color: var(--border-color);&quot;&gt;Tiến hành ký văn bản&lt;/b&gt;" style="rounded=0;whiteSpace=wrap;html=1;" vertex="1" parent="1">
          <mxGeometry x="570" y="465" width="300" height="30" as="geometry" />
        </mxCell>
        <mxCell id="4pOcg5WGqPger-8Qo3MJ-76" value="" style="rounded=0;whiteSpace=wrap;html=1;" vertex="1" parent="1">
          <mxGeometry x="570" y="174" width="240" height="20" as="geometry" />
        </mxCell>
        <mxCell id="4pOcg5WGqPger-8Qo3MJ-77" value="&lt;b style=&quot;border-color: var(--border-color);&quot;&gt;Mở file&lt;/b&gt;" style="rounded=0;whiteSpace=wrap;html=1;" vertex="1" parent="1">
          <mxGeometry x="820" y="174" width="50" height="20" as="geometry" />
        </mxCell>
        <mxCell id="4pOcg5WGqPger-8Qo3MJ-78" value="&lt;b&gt;Chọn file văn bản:&lt;/b&gt;" style="rounded=0;whiteSpace=wrap;html=1;" vertex="1" parent="1">
          <mxGeometry x="570" y="140" width="130" height="20" as="geometry" />
        </mxCell>
        <mxCell id="4pOcg5WGqPger-8Qo3MJ-79" value="" style="rounded=0;whiteSpace=wrap;html=1;" vertex="1" parent="1">
          <mxGeometry x="970" y="174" width="240" height="20" as="geometry" />
        </mxCell>
        <mxCell id="4pOcg5WGqPger-8Qo3MJ-80" value="&lt;b style=&quot;border-color: var(--border-color);&quot;&gt;Mở file&lt;/b&gt;" style="rounded=0;whiteSpace=wrap;html=1;" vertex="1" parent="1">
          <mxGeometry x="1220" y="174" width="50" height="20" as="geometry" />
        </mxCell>
        <mxCell id="4pOcg5WGqPger-8Qo3MJ-81" value="&lt;b style=&quot;border-color: var(--border-color);&quot;&gt;Nội dung văn bản:&lt;/b&gt;" style="rounded=0;whiteSpace=wrap;html=1;" vertex="1" parent="1">
          <mxGeometry x="970" y="207.5" width="120" height="20" as="geometry" />
        </mxCell>
        <mxCell id="4pOcg5WGqPger-8Qo3MJ-82" value="" style="rounded=0;whiteSpace=wrap;html=1;" vertex="1" parent="1">
          <mxGeometry x="970" y="240" width="300" height="100" as="geometry" />
        </mxCell>
        <mxCell id="4pOcg5WGqPger-8Qo3MJ-83" value="&lt;b style=&quot;border-color: var(--border-color);&quot;&gt;Tiến hành kiểm tra chữ ký&lt;/b&gt;" style="rounded=0;whiteSpace=wrap;html=1;" vertex="1" parent="1">
          <mxGeometry x="970" y="507" width="300" height="30" as="geometry" />
        </mxCell>
        <mxCell id="4pOcg5WGqPger-8Qo3MJ-84" value="&lt;b style=&quot;border-color: var(--border-color);&quot;&gt;Nội dung chữ ký:&lt;/b&gt;" style="rounded=0;whiteSpace=wrap;html=1;" vertex="1" parent="1">
          <mxGeometry x="970" y="350" width="120" height="22" as="geometry" />
        </mxCell>
        <mxCell id="4pOcg5WGqPger-8Qo3MJ-85" value="" style="rounded=0;whiteSpace=wrap;html=1;" vertex="1" parent="1">
          <mxGeometry x="970" y="415" width="300" height="80" as="geometry" />
        </mxCell>
        <mxCell id="4pOcg5WGqPger-8Qo3MJ-86" value="&lt;b style=&quot;border-color: var(--border-color);&quot;&gt;Chuyển tiếp dữ liệu&lt;/b&gt;" style="rounded=0;whiteSpace=wrap;html=1;" vertex="1" parent="1">
          <mxGeometry x="570" y="507" width="140" height="30" as="geometry" />
        </mxCell>
        <mxCell id="4pOcg5WGqPger-8Qo3MJ-87" value="&lt;b style=&quot;border-color: var(--border-color);&quot;&gt;Lưu file chữ ký&lt;/b&gt;" style="rounded=0;whiteSpace=wrap;html=1;" vertex="1" parent="1">
          <mxGeometry x="730" y="507" width="140" height="30" as="geometry" />
        </mxCell>
        <mxCell id="4pOcg5WGqPger-8Qo3MJ-88" value="&lt;b style=&quot;border-color: var(--border-color);&quot;&gt;Dark/Light&lt;/b&gt;" style="rounded=0;whiteSpace=wrap;html=1;" vertex="1" parent="1">
          <mxGeometry x="1180" y="30" width="120" height="30" as="geometry" />
        </mxCell>
        <mxCell id="4pOcg5WGqPger-8Qo3MJ-89" value="&lt;b&gt;Khóa bí mật (x):&lt;/b&gt;" style="rounded=0;whiteSpace=wrap;html=1;" vertex="1" parent="1">
          <mxGeometry x="160" y="312" width="120" height="15" as="geometry" />
        </mxCell>
        <mxCell id="4pOcg5WGqPger-8Qo3MJ-90" value="&lt;b&gt;Số nguyên x =&lt;/b&gt;" style="rounded=0;whiteSpace=wrap;html=1;" vertex="1" parent="1">
          <mxGeometry x="160" y="345" width="120" height="20" as="geometry" />
        </mxCell>
        <mxCell id="4pOcg5WGqPger-8Qo3MJ-91" value="" style="rounded=0;whiteSpace=wrap;html=1;" vertex="1" parent="1">
          <mxGeometry x="300" y="345" width="180" height="20" as="geometry" />
        </mxCell>
        <mxCell id="4pOcg5WGqPger-8Qo3MJ-92" value="&lt;b&gt;Số ngẫu nhiên k =&amp;nbsp;&lt;/b&gt;" style="rounded=0;whiteSpace=wrap;html=1;" vertex="1" parent="1">
          <mxGeometry x="160" y="380" width="120" height="20" as="geometry" />
        </mxCell>
        <mxCell id="4pOcg5WGqPger-8Qo3MJ-93" value="" style="rounded=0;whiteSpace=wrap;html=1;" vertex="1" parent="1">
          <mxGeometry x="300" y="380" width="180" height="20" as="geometry" />
        </mxCell>
        <mxCell id="4pOcg5WGqPger-8Qo3MJ-94" value="&lt;b&gt;Số Y = a^k mod p =&amp;nbsp;&lt;/b&gt;" style="rounded=0;whiteSpace=wrap;html=1;" vertex="1" parent="1">
          <mxGeometry x="160" y="420" width="120" height="20" as="geometry" />
        </mxCell>
        <mxCell id="4pOcg5WGqPger-8Qo3MJ-95" value="" style="rounded=0;whiteSpace=wrap;html=1;" vertex="1" parent="1">
          <mxGeometry x="300" y="420" width="180" height="20" as="geometry" />
        </mxCell>
        <mxCell id="4pOcg5WGqPger-8Qo3MJ-96" value="&lt;b style=&quot;border-color: var(--border-color);&quot;&gt;Thoát&lt;/b&gt;" style="rounded=0;whiteSpace=wrap;html=1;" vertex="1" parent="1">
          <mxGeometry x="340" y="507" width="140" height="30" as="geometry" />
        </mxCell>
        <mxCell id="4pOcg5WGqPger-8Qo3MJ-97" value="&lt;b style=&quot;border-color: var(--border-color);&quot;&gt;Xóa dữ liệu&lt;/b&gt;" style="rounded=0;whiteSpace=wrap;html=1;" vertex="1" parent="1">
          <mxGeometry x="160" y="507" width="140" height="30" as="geometry" />
        </mxCell>
        <mxCell id="4pOcg5WGqPger-8Qo3MJ-98" value="&lt;b style=&quot;border-color: var(--border-color);&quot;&gt;Tạo khóa ngẫu nhiên&lt;/b&gt;" style="rounded=0;whiteSpace=wrap;html=1;" vertex="1" parent="1">
          <mxGeometry x="160" y="465" width="320" height="30" as="geometry" />
        </mxCell>
        <mxCell id="4pOcg5WGqPger-8Qo3MJ-99" value="&lt;b&gt;Số d = a^x mod p =&lt;/b&gt;" style="rounded=0;whiteSpace=wrap;html=1;" vertex="1" parent="1">
          <mxGeometry x="160" y="270" width="120" height="20" as="geometry" />
        </mxCell>
        <mxCell id="4pOcg5WGqPger-8Qo3MJ-100" value="" style="rounded=0;whiteSpace=wrap;html=1;" vertex="1" parent="1">
          <mxGeometry x="300" y="270" width="180" height="20" as="geometry" />
        </mxCell>
        <mxCell id="4pOcg5WGqPger-8Qo3MJ-101" value="" style="rounded=0;whiteSpace=wrap;html=1;" vertex="1" parent="1">
          <mxGeometry x="970" y="382" width="240" height="20" as="geometry" />
        </mxCell>
        <mxCell id="4pOcg5WGqPger-8Qo3MJ-102" value="&lt;b style=&quot;border-color: var(--border-color);&quot;&gt;Mở file&lt;/b&gt;" style="rounded=0;whiteSpace=wrap;html=1;" vertex="1" parent="1">
          <mxGeometry x="1220" y="382" width="50" height="20" as="geometry" />
        </mxCell>
        <mxCell id="4pOcg5WGqPger-8Qo3MJ-104" value="" style="rounded=0;whiteSpace=wrap;html=1;" vertex="1" parent="1">
          <mxGeometry x="120" y="780" width="1200" height="590" as="geometry" />
        </mxCell>
        <mxCell id="4pOcg5WGqPger-8Qo3MJ-105" value="" style="rounded=0;whiteSpace=wrap;html=1;" vertex="1" parent="1">
          <mxGeometry x="440" y="820" width="560" height="40" as="geometry" />
        </mxCell>
        <mxCell id="4pOcg5WGqPger-8Qo3MJ-106" value="&lt;b style=&quot;border-color: var(--border-color);&quot;&gt;Mã hóa chuỗi&lt;/b&gt;" style="rounded=0;whiteSpace=wrap;html=1;" vertex="1" parent="1">
          <mxGeometry x="510" y="827.5" width="100" height="25" as="geometry" />
        </mxCell>
        <mxCell id="4pOcg5WGqPger-8Qo3MJ-107" value="&lt;b style=&quot;border-color: var(--border-color);&quot;&gt;Chữ ký số&lt;/b&gt;" style="rounded=0;whiteSpace=wrap;html=1;" vertex="1" parent="1">
          <mxGeometry x="670" y="827.5" width="100" height="25" as="geometry" />
        </mxCell>
        <mxCell id="4pOcg5WGqPger-8Qo3MJ-108" value="&lt;b style=&quot;border-color: var(--border-color); background-color: rgb(136, 255, 0);&quot;&gt;Tác giải&lt;/b&gt;" style="rounded=0;whiteSpace=wrap;html=1;" vertex="1" parent="1">
          <mxGeometry x="830" y="827.5" width="100" height="25" as="geometry" />
        </mxCell>
        <mxCell id="4pOcg5WGqPger-8Qo3MJ-109" value="&lt;b style=&quot;border-color: var(--border-color);&quot;&gt;Dark/Light&lt;/b&gt;" style="rounded=0;whiteSpace=wrap;html=1;" vertex="1" parent="1">
          <mxGeometry x="1180" y="830" width="120" height="30" as="geometry" />
        </mxCell>
        <mxCell id="4pOcg5WGqPger-8Qo3MJ-110" value="" style="rounded=0;whiteSpace=wrap;html=1;" vertex="1" parent="1">
          <mxGeometry x="160" y="900" width="450" height="440" as="geometry" />
        </mxCell>
        <mxCell id="4pOcg5WGqPger-8Qo3MJ-111" value="" style="rounded=0;whiteSpace=wrap;html=1;" vertex="1" parent="1">
          <mxGeometry x="840" y="900" width="445" height="450" as="geometry" />
        </mxCell>
        <mxCell id="4pOcg5WGqPger-8Qo3MJ-112" value="&lt;b&gt;ẢNH MÈO - CHÓ&lt;/b&gt;" style="ellipse;whiteSpace=wrap;html=1;aspect=fixed;" vertex="1" parent="1">
          <mxGeometry x="912.5" y="970" width="300" height="300" as="geometry" />
        </mxCell>
        <mxCell id="4pOcg5WGqPger-8Qo3MJ-113" value="&lt;b&gt;Đề tài: Tìm hiểu chữ ký điện tử Elgamal và viết ứng dụng minh họa&lt;/b&gt;" style="rounded=0;whiteSpace=wrap;html=1;" vertex="1" parent="1">
          <mxGeometry x="190" y="930" width="390" height="30" as="geometry" />
        </mxCell>
        <mxCell id="4pOcg5WGqPger-8Qo3MJ-114" value="&lt;b&gt;Sinh viên thực hiện: Đỗ Ngọc Giang&lt;/b&gt;" style="rounded=0;whiteSpace=wrap;html=1;" vertex="1" parent="1">
          <mxGeometry x="190" y="990" width="280" height="30" as="geometry" />
        </mxCell>
        <mxCell id="4pOcg5WGqPger-8Qo3MJ-115" value="&lt;b&gt;Nhấn F1 - F9 thay đổi Themes&lt;/b&gt;" style="rounded=0;whiteSpace=wrap;html=1;" vertex="1" parent="1">
          <mxGeometry x="190" y="1050" width="230" height="30" as="geometry" />
        </mxCell>
        <mxCell id="4pOcg5WGqPger-8Qo3MJ-116" value="&lt;b&gt;Nhấn Ctrl + D để đổi giữa 2 chế độ Dark/Light Mode&lt;/b&gt;" style="rounded=0;whiteSpace=wrap;html=1;" vertex="1" parent="1">
          <mxGeometry x="190" y="1105" width="320" height="30" as="geometry" />
        </mxCell>
        <mxCell id="4pOcg5WGqPger-8Qo3MJ-117" value="&lt;b&gt;Xem hướng dẫn tại đây&lt;/b&gt;" style="rounded=0;whiteSpace=wrap;html=1;" vertex="1" parent="1">
          <mxGeometry x="190" y="1160" width="180" height="30" as="geometry" />
        </mxCell>
        <mxCell id="4pOcg5WGqPger-8Qo3MJ-118" value="&lt;b&gt;Liên hệ với tôi&amp;nbsp;&lt;/b&gt;" style="rounded=0;whiteSpace=wrap;html=1;" vertex="1" parent="1">
          <mxGeometry x="190" y="1220" width="150" height="30" as="geometry" />
        </mxCell>
        <mxCell id="4pOcg5WGqPger-8Qo3MJ-122" value="&lt;b&gt;SHA-256&lt;/b&gt;" style="rounded=0;whiteSpace=wrap;html=1;" vertex="1" parent="1">
          <mxGeometry x="770" y="210" width="100" height="22.5" as="geometry" />
        </mxCell>
        <mxCell id="4pOcg5WGqPger-8Qo3MJ-124" value="&lt;b style=&quot;border-color: var(--border-color);&quot;&gt;MESS&lt;/b&gt;" style="rounded=0;whiteSpace=wrap;html=1;" vertex="1" parent="1">
          <mxGeometry x="350" y="1220" width="50" height="30" as="geometry" />
        </mxCell>
      </root>
    </mxGraphModel>
  </diagram>
</mxfile>
